<svg width="188" height="42" viewBox="0 0 188 42" fill="none" xmlns="http://www.w3.org/2000/svg">
<circle cx="21" cy="21" r="21" fill="white"/>
<path d="M23.1826 32.3066L23.9326 31.873C25.393 31.029 26.8533 30.1851 28.3135 29.3428L28.8154 29.6328V27.8994L28.3125 28.1875L23.9326 25.6582L23.1826 25.2246V32.3066ZM21.5137 17.7852L16.0684 20.9297L16.3174 21.3604H15.8184V28.4629L16.0684 28.6074L21.5137 31.751L22.2637 32.1836V17.3525L21.5137 17.7852ZM14.1494 13.4873L9.57812 16.127L8.82812 16.5596L9.57812 16.9932L14.1494 19.6318L14.8994 20.0654V13.0547L14.1494 13.4873ZM15.8184 20.0195L16.5684 19.5859L21.0576 16.9951L21.8076 16.5615L21.0576 16.1289L16.5684 13.5352L15.8184 13.1016V20.0195ZM21.6807 9.14062L16.9844 11.8535L16.2344 12.2861L16.9844 12.7197L22.4746 15.8896L22.7246 16.0342L22.9746 15.8896L28.4219 12.7441L29.1719 12.3105L28.4219 11.8779C27.5066 11.3496 26.5917 10.8214 25.6768 10.293C25.0119 9.90897 24.3468 9.52465 23.6816 9.14062L24.5488 8.64062H20.8145L21.6807 9.14062ZM14.9014 21.1289L14.6514 20.9854L6.99902 16.5664L22.4414 7.65039L22.4473 7.64746C22.5903 7.56218 22.7678 7.55998 22.9121 7.64258V7.64355L30.999 12.3145L23.4326 16.6826L23.1826 16.8271V24.1699L23.4326 24.3145L30.46 28.3721C30.759 28.5443 30.7642 28.987 30.4531 29.166C27.9087 30.6294 25.3662 32.1029 22.8252 33.5693L15.3604 29.2588L15.3047 29.2256L15.2412 29.209L15.1689 29.1826C15.0087 29.1087 14.9014 28.9473 14.9014 28.7646V21.1289Z" fill="black" stroke="#1A1A1C"/>
<path d="M61.762 29.5H58.8631V13.9761H51.7107V11.3482H68.8872V13.9761H61.762V29.5ZM77.372 29.7709C72.9559 29.7709 70.0571 27.2784 70.0571 22.7811C70.0571 18.5818 72.9289 15.7642 77.3178 15.7642C81.49 15.7642 84.3347 18.067 84.3347 22.158C84.3347 22.6456 84.3076 23.0249 84.2263 23.4313H72.7934C72.9018 26.0322 74.1751 27.4139 77.2907 27.4139C80.1083 27.4139 81.2733 26.4928 81.2733 24.8943V24.6776H84.1993V24.9214C84.1993 27.7932 81.3817 29.7709 77.372 29.7709ZM77.2636 18.067C74.2835 18.067 72.983 19.3946 72.8205 21.8058H81.5713V21.7516C81.5713 19.2591 80.1354 18.067 77.2636 18.067ZM93.3264 29.7709C88.8833 29.7709 85.9844 26.9262 85.9844 22.7811C85.9844 18.5818 88.8833 15.7642 93.3264 15.7642C97.3632 15.7642 100.316 18.04 100.316 21.3994V21.6703H97.4173V21.5078C97.4173 19.4217 95.9002 18.3922 93.2722 18.3922C90.2379 18.3922 88.8833 19.828 88.8833 22.7811C88.8833 25.68 90.2379 27.143 93.2722 27.143C95.9002 27.143 97.4173 26.1135 97.4173 24.0274V23.8377H100.316V24.1357C100.316 27.4952 97.3632 29.7709 93.3264 29.7709ZM105.406 29.5H102.48V11.3482H105.406V20.1532H105.569C106.029 17.8774 107.682 15.7642 111.122 15.7642C114.834 15.7642 116.649 18.2025 116.649 21.4807V29.5H113.75V22.1851C113.75 19.4758 112.531 18.3922 109.741 18.3922C106.544 18.3922 105.406 20.1261 105.406 22.9708V29.5Z" fill="white"/>
<path d="M126.893 29.7709C121.475 29.7709 118.711 27.3868 118.711 23.5668V23.4042H121.637V23.8377C121.637 26.0051 122.911 27.0888 126.893 27.0888C130.361 27.0888 131.58 26.3302 131.58 24.6234C131.58 23.052 130.659 22.456 128.356 22.0225L123.913 21.291C120.852 20.7492 118.684 19.3404 118.684 16.3602C118.684 13.7323 120.852 11.0772 126.487 11.0772C131.797 11.0772 134.208 13.7323 134.208 17.2814V17.4439H131.309V17.0917C131.309 14.8702 129.982 13.7594 126.216 13.7594C122.911 13.7594 121.61 14.5721 121.61 16.1977C121.61 17.769 122.531 18.2838 124.672 18.7444L129.088 19.5029C132.718 20.1532 134.506 21.8058 134.506 24.4608C134.506 27.2242 132.258 29.7709 126.893 29.7709ZM139.509 34.1057H136.583V16.0351H139.266V19.7739H139.509C140.051 17.2814 141.948 15.7642 145.118 15.7642C149.29 15.7642 151.647 18.6089 151.647 22.7811C151.647 26.9533 149.344 29.7709 145.145 29.7709C142.11 29.7709 140.16 28.1725 139.618 25.7071H139.509V34.1057ZM139.509 22.9978C139.509 25.7613 141.27 27.1159 144.142 27.1159C147.041 27.1159 148.721 26.0051 148.721 22.7811C148.721 19.53 147.014 18.4463 144.196 18.4463C141.189 18.4463 139.509 19.8551 139.509 22.754V22.9978ZM156.601 14.4638H153.675V11.3482H156.601V14.4638ZM156.601 29.5H153.675V16.0351H156.601V29.5ZM162.236 29.5H159.31V16.0351H161.992V19.6655H162.182C162.589 17.4981 164.052 15.7642 166.815 15.7642C169.876 15.7642 171.204 17.9587 171.204 20.5054V22.2664H168.305V21.0743C168.305 19.1507 167.492 18.2567 165.487 18.2567C163.185 18.2567 162.236 19.53 162.236 21.9412V29.5ZM179.815 29.7709C175.399 29.7709 172.5 27.2784 172.5 22.7811C172.5 18.5818 175.372 15.7642 179.761 15.7642C183.933 15.7642 186.778 18.067 186.778 22.158C186.778 22.6456 186.75 23.0249 186.669 23.4313H175.236C175.345 26.0322 176.618 27.4139 179.734 27.4139C182.551 27.4139 183.716 26.4928 183.716 24.8943V24.6776H186.642V24.9214C186.642 27.7932 183.824 29.7709 179.815 29.7709ZM179.706 18.067C176.726 18.067 175.426 19.3946 175.263 21.8058H184.014V21.7516C184.014 19.2591 182.578 18.067 179.706 18.067Z" fill="white"/>
</svg>
