<svg width="44" height="44" viewBox="0 0 44 44" fill="none" xmlns="http://www.w3.org/2000/svg">
<g clip-path="url(#clip0_8277_6775)">
<path d="M44 22C44 9.84974 34.1503 0 22 0C9.84974 0 0 9.84974 0 22C0 34.1503 9.84974 44 22 44C34.1503 44 44 34.1503 44 22Z" fill="white"/>
<path d="M25.1826 33.2246L25.9326 32.791C27.393 31.9469 28.8533 31.1031 30.3135 30.2607L30.8154 30.5508V28.8174L30.3125 29.1055L25.9326 26.5762L25.1826 26.1426V33.2246ZM23.5137 18.7031L18.0684 21.8477L18.3174 22.2783H17.8184V29.3809L18.0684 29.5254L23.5137 32.6689L24.2637 33.1016V18.2705L23.5137 18.7031ZM16.1494 14.4053L11.5781 17.0449L10.8281 17.4775L11.5781 17.9111L16.1494 20.5498L16.8994 20.9834V13.9727L16.1494 14.4053ZM17.8184 20.9375L18.5684 20.5039L23.0576 17.9131L23.8076 17.4795L23.0576 17.0469L18.5684 14.4531L17.8184 14.0195V20.9375ZM23.6807 10.0586L18.9844 12.7715L18.2344 13.2041L18.9844 13.6377L24.4746 16.8076L24.7246 16.9521L24.9746 16.8076L30.4219 13.6621L31.1719 13.2285L30.4219 12.7959C29.5066 12.2675 28.5917 11.7393 27.6768 11.2109C27.0119 10.8269 26.3468 10.4426 25.6816 10.0586L26.5488 9.55859H22.8145L23.6807 10.0586ZM16.9014 22.0469L16.6514 21.9033L8.99902 17.4844L24.4414 8.56836L24.4473 8.56543C24.5903 8.48015 24.7678 8.47795 24.9121 8.56055V8.56152L32.999 13.2324L25.4326 17.6006L25.1826 17.7451V25.0879L25.4326 25.2324L32.46 29.29C32.759 29.4623 32.7642 29.905 32.4531 30.084C29.9087 31.5474 27.3662 33.0209 24.8252 34.4873L17.3604 30.1768L17.3047 30.1436L17.2412 30.127L17.1689 30.1006C17.0087 30.0267 16.9014 29.8652 16.9014 29.6826V22.0469Z" fill="#1A1A1C" stroke="#1A1A1C"/>
</g>
<defs>
<clipPath id="clip0_8277_6775">
<rect width="44" height="44" fill="white"/>
</clipPath>
</defs>
</svg>
